<svg width="21" height="20" viewBox="0 0 21 20" fill="none" xmlns="http://www.w3.org/2000/svg">
<path d="M8 12.5C8 10.143 8 8.9645 8.73223 8.23223C9.4645 7.5 10.643 7.5 13 7.5H13.8333C16.1903 7.5 17.3688 7.5 18.1011 8.23223C18.8333 8.9645 18.8333 10.143 18.8333 12.5V13.3333C18.8333 15.6903 18.8333 16.8688 18.1011 17.6011C17.3688 18.3333 16.1903 18.3333 13.8333 18.3333H13C10.643 18.3333 9.4645 18.3333 8.73223 17.6011C8 16.8688 8 15.6903 8 13.3333V12.5Z" stroke="white" stroke-width="1.5" stroke-linecap="round" stroke-linejoin="round"/>
<path d="M14.6667 7.50033C14.6647 5.03608 14.6274 3.75967 13.9101 2.88568C13.7716 2.7169 13.6168 2.56214 13.4481 2.42363C12.5261 1.66699 11.1563 1.66699 8.41675 1.66699C5.67718 1.66699 4.3074 1.66699 3.38544 2.42363C3.21666 2.56213 3.0619 2.7169 2.92338 2.88568C2.16675 3.80764 2.16675 5.17743 2.16675 7.91699C2.16675 10.6566 2.16675 12.0263 2.92338 12.9483C3.06189 13.1171 3.21666 13.2718 3.38544 13.4103C4.25942 14.1277 5.53584 14.1649 8.00008 14.1669" stroke="white" stroke-width="1.5" stroke-linecap="round" stroke-linejoin="round"/>
</svg>
