<svg width="21" height="20" viewBox="0 0 21 20" fill="none" xmlns="http://www.w3.org/2000/svg">
<path fill-rule="evenodd" clip-rule="evenodd" d="M9.58777 4.58887C6.12205 4.58887 3.31247 7.384 3.31247 10.8321C3.31247 14.2801 6.12205 17.0753 9.58777 17.0753C13.0536 17.0753 15.8631 14.2801 15.8631 10.8321C15.8631 7.384 13.0536 4.58887 9.58777 4.58887ZM9.58777 6.0872C12.2176 6.0872 14.357 8.21575 14.357 10.8321C14.357 13.4483 12.2176 15.5769 9.58777 15.5769C6.95808 15.5769 4.8185 13.4483 4.8185 10.8321C4.8185 8.21575 6.95808 6.0872 9.58777 6.0872Z" fill="#2669FF"/>
<path fill-rule="evenodd" clip-rule="evenodd" d="M11.3229 2.89062C7.85722 2.89062 5.04764 5.68575 5.04764 9.13385C5.04764 12.5819 7.85722 15.3771 11.3229 15.3771C14.7887 15.3771 17.5982 12.5819 17.5982 9.13385C17.5982 5.68575 14.7887 2.89062 11.3229 2.89062ZM11.7057 4.38896C14.3355 4.38896 16.475 6.5175 16.475 9.13385C16.475 11.7501 14.3355 13.8786 11.7057 13.8786C9.076 13.8786 6.93642 11.7501 6.93642 9.13385C6.93642 6.5175 9.076 4.38896 11.7057 4.38896Z" fill="#2669FF"/>
<path fill-rule="evenodd" clip-rule="evenodd" d="M7.4217 4.23145L5.03372 6.54315L6.98279 5.80146L7.4217 4.23145Z" fill="#2669FF"/>
<path fill-rule="evenodd" clip-rule="evenodd" d="M13.718 15.5398L16.0513 13.1738L14.1201 13.96L13.718 15.5398Z" fill="#2669FF"/>
</svg>
