<svg width="1440" height="966" viewBox="0 0 1440 966" fill="none" xmlns="http://www.w3.org/2000/svg">
<g opacity="0.5">
<path d="M-418.098 212.461C-600.945 331.237 -485.827 538.204 -377.668 670.752C-244.133 833.856 -77.4434 994.946 -48.1691 1180.56C-16.9094 1376.49 -10.396 1711.62 127.23 1900C224.593 2032.93 451.841 2169.03 675.068 2180.49C835.949 2188.74 987.526 2105.28 1115.77 2049.4C1257.63 1987.27 1690.75 2158.08 1775.06 2062.34C1899.05 1921.28 1827.21 1753.21 1766.12 1620.53C1706.34 1490.23 1605.1 1369.88 1470.17 1261.96C1420.47 1222.26 1365.02 1189.7 1320.97 1152.15C1284.14 1120.77 1257.18 1085.95 1248.03 1040.21C1233.42 967.953 1220 900.399 1200.74 834.635C1184.51 779.939 1165.67 726.966 1134.75 671.515C1120.27 645.697 1099.73 618.872 1075.03 589.048C1013.1 514.826 911.907 442.535 781.228 377.787C608.144 292.288 438.875 223.47 272.883 174.786C6.70238 97.2796 -270.931 116.929 -418.098 212.461Z" stroke="url(#paint0_linear_25_10111)" stroke-opacity="0.2" stroke-width="6"/>
<path d="M-443.733 187C-636.611 312.225 -515.256 530.657 -401.004 670.483C-260.396 842.772 -84.4473 1012.46 -53.1876 1208.39C-20.3247 1415.09 -45.5483 1738.6 99.8202 1937.14C202.547 2077.53 441.189 2208.65 676.586 2220.96C828.868 2228.78 973.593 2159.82 1098.6 2110.98C1243.03 2054.77 1618.45 2180.84 1710.76 2090.15C1850.74 1952.69 1822.63 1786.41 1791.05 1645.72C1760.68 1509.5 1683.55 1381.33 1565.53 1265.92C1522.44 1223.55 1472.56 1187.32 1429.7 1147.51C1394.39 1114.59 1366.04 1079 1349.61 1034.98C1323.09 963.732 1292.32 898.306 1253.56 834.559C1221.75 782.314 1186.59 732.45 1142.18 680.719C1121.85 656.922 1095.1 632.101 1064.58 603.835C991.513 536.47 883.717 466.859 749.55 400.074C581.388 316.686 416.404 241.354 249.287 179.611C3.56124 88.5278 -280.218 80.9304 -443.733 187Z" stroke="url(#paint1_linear_25_10111)" stroke-opacity="0.2" stroke-width="6"/>
<path d="M-469.371 161.537C-672.281 293.214 -544.688 523.11 -424.343 670.213C-276.291 851.474 -91.0965 1030 -58.5562 1235.98C-24.0901 1453.43 -81.397 1765.09 71.6898 1974.23C179.793 2121.87 429.457 2248.21 677.396 2261.17C821.078 2268.54 958.951 2214.09 1080.72 2172.51C1228.07 2122.26 1545.8 2203.34 1645.38 2118.14C1801.68 1984.54 1816.25 1819.75 1814.89 1671.09C1813.57 1528.93 1760.91 1392.96 1659.82 1269.6C1622.97 1224.76 1579.04 1184.66 1537.74 1142.37C1503.94 1107.9 1473.83 1071.53 1450.84 1029.49C1412.4 959.492 1364.67 895.517 1306.03 834.233C1258.63 784.67 1207.86 737.952 1149.64 689.458C1123.81 667.702 1091.22 644.67 1054.51 617.944C971.046 557.243 856.264 490.756 717.904 421.667C554.663 340.388 392.843 259.415 225.376 183.491C-0.729685 81.1095 -289.879 45.1438 -469.371 161.537Z" stroke="url(#paint2_linear_25_10111)" stroke-opacity="0.2" stroke-width="6"/>
<path d="M-494.662 136.326C-707.602 274.452 -573.76 515.581 -447.679 669.944C-292.185 860.178 -98.1019 1047.52 -63.5764 1263.81C-27.1487 1492.05 -116.539 1791.84 43.9197 2011.35C157.4 2166.23 418.433 2288.04 678.207 2301.38C813.648 2308.33 944.3 2268.6 1062.83 2234.05C1213.1 2189.99 1473.5 2226.1 1580.35 2146.15C1753.33 2016.65 1810.24 1852.87 1839.11 1696.24C1866.48 1547.9 1838.65 1404.15 1754.84 1273.31C1724.22 1225.77 1685.87 1182.01 1646.13 1137.49C1613.86 1101.24 1581.98 1064.31 1552.42 1024.26C1501.7 955.484 1437.72 893.229 1358.85 833.925C1295.89 786.813 1229.16 742.991 1157.45 698.217C1125.77 678.482 1087.34 657.24 1044.44 632.286C950.951 577.804 828.454 514.636 686.618 443.278C528.299 364.109 368.532 278.133 202.171 187.64C-6.48748 74.3129 -299.538 9.35787 -494.662 136.326Z" stroke="url(#paint3_linear_25_10111)" stroke-opacity="0.2" stroke-width="6"/>
<path d="M-520.297 110.865C-743.28 255.673 -602.842 508.285 -470.669 669.925C-307.731 869.131 -104.401 1065.3 -68.6072 1291.88C-30.5762 1530.88 -151.703 1819.06 16.4854 2048.95C134.972 2211.28 407.397 2328.11 679.713 2342.08C806.554 2348.59 930.677 2324.08 1046 2296.1C1199.52 2258.71 1402.25 2249.61 1516.38 2174.67C1706.01 2049.74 1804.92 1886.49 1864.01 1722.13C1919.72 1567.58 1916.71 1416.28 1850.17 1277.74C1825.81 1227.5 1793.03 1180.08 1754.84 1133.32C1723.73 1095.5 1690.09 1057.79 1653.98 1019.48C1590.96 952.402 1510.41 890.923 1411.65 834.312C1333.48 789.439 1250.78 748.745 1165.22 707.903C1128.05 690.208 1083.79 670.524 1034.33 647.322C930.834 598.828 800.61 539.21 655.287 465.816C501.912 388.294 342.729 297.937 178.944 192.253C-13.3427 67.9248 -309.196 -26.4276 -520.297 110.865Z" stroke="url(#paint4_linear_25_10111)" stroke-opacity="0.2" stroke-width="6"/>
<path d="M1173.04 716.43C956.245 635.654 555.469 499.699 155.725 196.633C-22.0058 61.6761 -318.5 -62.1949 -545.937 85.4032C-778.95 236.662 -632.275 500.738 -494.367 669.638C-324.345 877.798 -111.768 1082.8 -73.9888 1319.7C-33.9963 1569.48 -187.207 1845.79 -11.6462 2086.04C112.216 2255.61 396.023 2367.69 680.521 2382.29C965.019 2396.89 1244.02 2322.52 1451.01 2202.43C1658.01 2082.1 1797.86 1919.1 1887.88 1747.04C2070.34 1397.7 1960.15 1059.8 1464.13 833.524C1370.76 790.888 1272.1 753.321 1173.04 716.43Z" stroke="url(#paint5_linear_25_10111)" stroke-opacity="0.2" stroke-width="6"/>
</g>
<defs>
<linearGradient id="paint0_linear_25_10111" x1="714.039" y1="165.072" x2="610.785" y2="2177.19" gradientUnits="userSpaceOnUse">
<stop stop-color="#7FABEC"/>
<stop offset="1" stop-color="#7FABEC" stop-opacity="0"/>
</linearGradient>
<linearGradient id="paint1_linear_25_10111" x1="684.572" y1="149.857" x2="578.549" y2="2215.93" gradientUnits="userSpaceOnUse">
<stop stop-color="#7FABEC"/>
<stop offset="1" stop-color="#7FABEC" stop-opacity="0"/>
</linearGradient>
<linearGradient id="paint2_linear_25_10111" x1="665.554" y1="131.761" x2="556.599" y2="2254.97" gradientUnits="userSpaceOnUse">
<stop stop-color="#7FABEC"/>
<stop offset="1" stop-color="#7FABEC" stop-opacity="0"/>
</linearGradient>
<linearGradient id="paint3_linear_25_10111" x1="664.938" y1="112.123" x2="552.923" y2="2294.95" gradientUnits="userSpaceOnUse">
<stop stop-color="#7FABEC"/>
<stop offset="1" stop-color="#7FABEC" stop-opacity="0"/>
</linearGradient>
<linearGradient id="paint4_linear_25_10111" x1="675.101" y1="91.2269" x2="559.911" y2="2335.93" gradientUnits="userSpaceOnUse">
<stop stop-color="#7FABEC"/>
<stop offset="1" stop-color="#7FABEC" stop-opacity="0"/>
</linearGradient>
<linearGradient id="paint5_linear_25_10111" x1="692.25" y1="69.3966" x2="573.842" y2="2376.82" gradientUnits="userSpaceOnUse">
<stop stop-color="#7FABEC"/>
<stop offset="1" stop-color="#7FABEC" stop-opacity="0"/>
</linearGradient>
</defs>
</svg>
